<svg width="77" height="20" viewBox="0 0 77 20" fill="none" xmlns="http://www.w3.org/2000/svg">
<path d="M0.5 6C0.5 2.96243 2.96243 0.5 6 0.5H71C74.0376 0.5 76.5 2.96243 76.5 6V14C76.5 17.0376 74.0376 19.5 71 19.5H6C2.96244 19.5 0.5 17.0376 0.5 14V6Z" fill="#10110C"/>
<path d="M0.5 6C0.5 2.96243 2.96243 0.5 6 0.5H71C74.0376 0.5 76.5 2.96243 76.5 6V14C76.5 17.0376 74.0376 19.5 71 19.5H6C2.96244 19.5 0.5 17.0376 0.5 14V6Z" stroke="#E53935"/>
<path d="M0.5 6C0.5 2.96243 2.96243 0.5 6 0.5H71C74.0376 0.5 76.5 2.96243 76.5 6V14C76.5 17.0376 74.0376 19.5 71 19.5H6C2.96244 19.5 0.5 17.0376 0.5 14V6Z" stroke="url(#paint0_linear_193_660)"/>
<path d="M0.5 6C0.5 2.96243 2.96243 0.5 6 0.5H71C74.0376 0.5 76.5 2.96243 76.5 6V14C76.5 17.0376 74.0376 19.5 71 19.5H6C2.96244 19.5 0.5 17.0376 0.5 14V6Z" stroke="url(#paint1_linear_193_660)"/>
<path d="M0.5 6C0.5 2.96243 2.96243 0.5 6 0.5H71C74.0376 0.5 76.5 2.96243 76.5 6V14C76.5 17.0376 74.0376 19.5 71 19.5H6C2.96244 19.5 0.5 17.0376 0.5 14V6Z" stroke="url(#paint2_linear_193_660)"/>
<path d="M27.9999 6.65714L25.8571 7.83571L23.7142 9.87142V16.8571H26.7142C27.4244 16.8571 27.9999 16.2816 27.9999 15.5714V6.65714Z" fill="#4CAF50"/>
<path d="M10 6.65714L11.5489 7.38999L14.2857 9.87142V16.8571H11.2857C10.5756 16.8571 10 16.2816 10 15.5714V6.65714Z" fill="#1E88E5"/>
<path d="M23.7143 4.51428L19 8.05L14.2857 4.51428L13.8572 7L14.2857 9.87143L19 13.4071L23.7143 9.87143L24.1429 7L23.7143 4.51428Z" fill="#E53935"/>
<path d="M10 4.98487V6.65715L14.2857 9.87144V4.5143L12.9469 3.51101C12.628 3.27187 12.2406 3.14287 11.842 3.14287C10.8246 3.14287 10 3.96744 10 4.98487Z" fill="#C62828"/>
<path d="M27.9999 4.98487V6.65715L23.7142 9.87144V4.5143L25.0531 3.51101C25.3719 3.27187 25.7594 3.14287 26.1579 3.14287C27.1754 3.14287 27.9999 3.96744 27.9999 4.98487Z" fill="#FBC02D"/>
<path d="M64.9 14.602C64.516 14.602 64.18 14.526 63.892 14.374C63.604 14.222 63.38 14.006 63.22 13.726C63.06 13.446 62.98 13.118 62.98 12.742V7.936C62.98 7.32296 62.483 6.826 61.87 6.826H61.252C60.9803 6.826 60.76 6.60572 60.76 6.334V6.334C60.76 6.06227 60.9803 5.842 61.252 5.842H62.41C63.3213 5.842 64.06 6.58073 64.06 7.492V12.742C64.06 13.014 64.136 13.23 64.288 13.39C64.44 13.542 64.644 13.618 64.9 13.618H66.508C66.7797 13.618 67 13.8383 67 14.11V14.11C67 14.3817 66.7797 14.602 66.508 14.602H64.9Z" fill="white"/>
<path d="M54.7167 14.602C54.445 14.602 54.2247 14.3817 54.2247 14.11V14.11C54.2247 13.8383 54.445 13.618 54.7167 13.618H55.3947C56.0409 13.618 56.5647 13.0942 56.5647 12.448V10.006C56.5647 9.44267 56.1081 8.986 55.5447 8.986H55.0167C54.745 8.986 54.5247 8.76572 54.5247 8.494V8.494C54.5247 8.22228 54.745 8.002 55.0167 8.002H56.0847C56.9463 8.002 57.6447 8.70044 57.6447 9.562V12.508C57.6447 13.121 58.1417 13.618 58.7547 13.618H59.3727C59.6445 13.618 59.8647 13.8383 59.8647 14.11V14.11C59.8647 14.3817 59.6445 14.602 59.3727 14.602H54.7167ZM56.9847 6.814C56.7207 6.814 56.5127 6.746 56.3607 6.61C56.2087 6.474 56.1327 6.29 56.1327 6.058C56.1327 5.818 56.2087 5.63 56.3607 5.494C56.5127 5.35 56.7207 5.278 56.9847 5.278C57.2487 5.278 57.4567 5.35 57.6087 5.494C57.7607 5.63 57.8367 5.818 57.8367 6.058C57.8367 6.29 57.7607 6.474 57.6087 6.61C57.4567 6.746 57.2487 6.814 56.9847 6.814Z" fill="white"/>
<path d="M49.0334 14.722C48.3374 14.722 47.7894 14.546 47.3894 14.194C46.9894 13.834 46.7894 13.35 46.7894 12.742C46.7894 12.126 46.9894 11.642 47.3894 11.29C47.7894 10.938 48.3294 10.762 49.0094 10.762H50.3894C50.7539 10.762 51.0494 10.4665 51.0494 10.102V10.102C51.0494 9.694 50.9254 9.382 50.6774 9.166C50.4374 8.942 50.0934 8.83 49.6454 8.83C49.2534 8.83 48.9254 8.914 48.6614 9.082C48.5499 9.1496 48.4583 9.22792 48.3868 9.31694C48.2186 9.52618 48.006 9.742 47.7376 9.742V9.742C47.4127 9.742 47.1539 9.45007 47.2881 9.15423C47.4249 8.85261 47.6387 8.59654 47.9294 8.386C48.3934 8.05 48.9734 7.882 49.6694 7.882C50.4294 7.882 51.0294 8.078 51.4694 8.47C51.9094 8.862 52.1294 9.394 52.1294 10.066V14.074C52.1294 14.3656 51.893 14.602 51.6014 14.602V14.602C51.3098 14.602 51.0734 14.3656 51.0734 14.074V13.3947C51.0734 13.3656 51.0498 13.342 51.0207 13.342V13.342C50.9737 13.342 50.9502 13.2852 50.9834 13.252V13.252C51.0166 13.2188 51.0723 13.2424 51.0689 13.2892C51.0381 13.7096 50.8516 14.0472 50.5094 14.302C50.1414 14.582 49.6494 14.722 49.0334 14.722ZM49.2974 13.87C49.8094 13.87 50.2294 13.742 50.5574 13.486C50.8854 13.23 51.0494 12.902 51.0494 12.502V12.502C51.0494 11.9851 50.6304 11.566 50.1134 11.566H49.0334C48.6734 11.566 48.3894 11.666 48.1814 11.866C47.9734 12.066 47.8694 12.338 47.8694 12.682C47.8694 13.05 47.9934 13.342 48.2414 13.558C48.4974 13.766 48.8494 13.87 49.2974 13.87Z" fill="white"/>
<path d="M40.1041 14.602C39.829 14.602 39.6061 14.379 39.6061 14.104V8.476C39.6061 8.21422 39.8183 8.002 40.0801 8.002H40.1581C40.3768 8.002 40.5541 8.1793 40.5541 8.398V8.7152C40.5541 8.75872 40.5894 8.794 40.6329 8.794H40.6634C40.7107 8.794 40.7401 8.84532 40.7163 8.88618V8.88618C40.6848 8.94022 40.6077 8.91789 40.6153 8.8558C40.6477 8.59229 40.7392 8.37569 40.8901 8.206C41.0901 7.99 41.3581 7.882 41.6941 7.882C42.0621 7.882 42.3461 8.018 42.5461 8.29C42.6693 8.45759 42.7546 8.66769 42.8019 8.92031C42.8259 9.04867 42.67 9.08991 42.6116 8.97311V8.97311C42.5705 8.89082 42.6303 8.794 42.7223 8.794H42.8724C42.9346 8.794 42.9693 8.86575 42.9307 8.91448V8.91448C42.887 8.96973 42.8019 8.93873 42.8103 8.86877C42.8424 8.59939 42.9384 8.37847 43.0981 8.206C43.3061 7.99 43.5781 7.882 43.9141 7.882C44.3301 7.882 44.6501 8.038 44.8741 8.35C45.1061 8.662 45.2221 9.074 45.2221 9.586V14.104C45.2221 14.379 44.9991 14.602 44.7241 14.602V14.602C44.449 14.602 44.2261 14.379 44.2261 14.104V9.574C44.2261 9.302 44.1661 9.09 44.0461 8.938C43.9341 8.786 43.7661 8.71 43.5421 8.71C43.3261 8.71 43.1541 8.786 43.0261 8.938C42.9061 9.082 42.8461 9.29 42.8461 9.562V14.17C42.8461 14.4086 42.6527 14.602 42.4141 14.602V14.602C42.1755 14.602 41.9821 14.4086 41.9821 14.17V9.574C41.9821 9.294 41.9181 9.082 41.7901 8.938C41.6701 8.786 41.4981 8.71 41.2741 8.71C41.0501 8.71 40.8821 8.786 40.7701 8.938C40.6581 9.082 40.6021 9.29 40.6021 9.562V14.104C40.6021 14.379 40.3791 14.602 40.1041 14.602V14.602Z" fill="white"/>
<path d="M35.2668 14.722C34.7388 14.722 34.2788 14.622 33.8868 14.422C33.5028 14.222 33.2028 13.934 32.9868 13.558C32.7788 13.174 32.6748 12.722 32.6748 12.202V8.242C32.6748 7.714 32.7788 7.262 32.9868 6.886C33.2028 6.51 33.5028 6.222 33.8868 6.022C34.2788 5.822 34.7388 5.722 35.2668 5.722C35.7948 5.722 36.2508 5.826 36.6348 6.034C37.0188 6.234 37.3148 6.522 37.5228 6.898C37.6553 7.13749 37.7456 7.40619 37.7937 7.7041C37.8412 7.99852 37.593 8.242 37.2948 8.242V8.242C36.9966 8.242 36.7674 7.99569 36.6926 7.70698C36.6295 7.46304 36.5182 7.26138 36.3588 7.102C36.1028 6.83 35.7388 6.694 35.2668 6.694C34.7948 6.694 34.4228 6.826 34.1508 7.09C33.8868 7.354 33.7548 7.734 33.7548 8.23V12.202C33.7548 12.698 33.8868 13.082 34.1508 13.354C34.4228 13.626 34.7948 13.762 35.2668 13.762C35.7388 13.762 36.1028 13.626 36.3588 13.354C36.6228 13.082 36.7548 12.698 36.7548 12.202V12.01C36.7548 11.5196 36.3572 11.122 35.8668 11.122H35.4708C35.1991 11.122 34.9788 10.9017 34.9788 10.63V10.63C34.9788 10.3583 35.1991 10.138 35.4708 10.138H36.4068C37.1955 10.138 37.8348 10.7773 37.8348 11.566V12.202C37.8348 12.714 37.7308 13.162 37.5228 13.546C37.3148 13.922 37.0188 14.214 36.6348 14.422C36.2508 14.622 35.7948 14.722 35.2668 14.722Z" fill="white"/>
<defs>
<linearGradient id="paint0_linear_193_660" x1="1" y1="10" x2="65" y2="11.5" gradientUnits="userSpaceOnUse">
<stop offset="0.301298" stop-opacity="0"/>
<stop offset="0.415812" stop-color="#4CAF50" stop-opacity="0"/>
<stop offset="0.419386" stop-color="#4CAF50"/>
</linearGradient>
<linearGradient id="paint1_linear_193_660" x1="1.00451" y1="11.6725" x2="43.5" y2="10" gradientUnits="userSpaceOnUse">
<stop offset="0.9999" stop-opacity="0"/>
<stop offset="1" stop-color="#FBC02D"/>
</linearGradient>
<linearGradient id="paint2_linear_193_660" x1="1.00451" y1="11.6725" x2="42" y2="13.5" gradientUnits="userSpaceOnUse">
<stop offset="0.221154" stop-color="#1E88E5"/>
<stop offset="0.221254" stop-opacity="0"/>
<stop offset="1" stop-color="#1E88E5" stop-opacity="0"/>
</linearGradient>
</defs>
</svg>
