<svg width="75" height="20" viewBox="0 0 75 20" fill="none" xmlns="http://www.w3.org/2000/svg">
<path d="M6 0.5H69C72.0376 0.5 74.5 2.96243 74.5 6V14C74.5 17.0376 72.0376 19.5 69 19.5H6C2.96243 19.5 0.5 17.0376 0.5 14V6C0.5 2.96243 2.96243 0.5 6 0.5Z" fill="#10110C"/>
<path d="M6 0.5H69C72.0376 0.5 74.5 2.96243 74.5 6V14C74.5 17.0376 72.0376 19.5 69 19.5H6C2.96243 19.5 0.5 17.0376 0.5 14V6C0.5 2.96243 2.96243 0.5 6 0.5Z" stroke="#FAFAFA"/>
<path d="M21 8.74118C19.8204 8.74406 18.6697 8.36854 17.7106 7.66767V12.5558C17.7102 13.4611 17.4392 14.3448 16.9336 15.0886C16.428 15.8324 15.712 16.4009 14.8813 16.7182C14.0507 17.0354 13.1449 17.0862 12.2852 16.8637C11.4255 16.6413 10.6528 16.1562 10.0705 15.4734C9.48812 14.7906 9.12385 13.9426 9.02638 13.0427C8.92892 12.1429 9.10289 11.2341 9.52505 10.4379C9.94721 9.64173 10.5974 8.99608 11.3888 8.5873C12.1801 8.17852 13.0748 8.02609 13.9533 8.15041V10.609C13.5513 10.4799 13.1196 10.4838 12.7199 10.6201C12.3202 10.7564 11.9729 11.0181 11.7277 11.3679C11.4824 11.7177 11.3516 12.1377 11.3541 12.5678C11.3566 12.998 11.4922 13.4164 11.7415 13.7632C11.9908 14.11 12.3411 14.3676 12.7423 14.4991C13.1436 14.6305 13.5753 14.6292 13.9757 14.4953C14.3762 14.3614 14.725 14.1018 14.9723 13.7535C15.2196 13.4051 15.3527 12.986 15.3527 12.5558V3H17.7106C17.7089 3.20325 17.7256 3.40623 17.7604 3.60636C17.8423 4.05313 18.0127 4.47814 18.261 4.8554C18.5094 5.23265 18.8306 5.55422 19.2048 5.80044C19.7373 6.15985 20.3616 6.35142 21 6.35128V8.74118Z" fill="white"/>
<path d="M60.9959 14.614C60.6977 14.614 60.4559 14.3722 60.4559 14.074V6.39399C60.4559 6.09575 60.6977 5.85399 60.9959 5.85399V5.85399C61.2942 5.85399 61.5359 6.09576 61.5359 6.39399V9.90037C61.5359 10.363 61.9109 10.738 62.3736 10.738V10.738C62.6459 10.738 62.9013 10.6056 63.0582 10.3829L64.5771 8.22793C64.6717 8.09379 64.8256 8.01399 64.9897 8.01399V8.01399C65.399 8.01399 65.638 8.47551 65.402 8.80984L64.3217 10.3397C63.9729 10.8337 63.961 11.4904 64.2915 11.9968L65.4673 13.798C65.6964 14.1489 65.4446 14.614 65.0255 14.614V14.614C64.8473 14.614 64.6812 14.5241 64.5838 14.3749L63.0665 12.0515C62.9127 11.816 62.6503 11.674 62.369 11.674V11.674C61.9089 11.674 61.5359 12.047 61.5359 12.5071V14.074C61.5359 14.3722 61.2942 14.614 60.9959 14.614V14.614Z" fill="white"/>
<path d="M55.7206 14.71C55.1926 14.71 54.7366 14.61 54.3526 14.41C53.9686 14.21 53.6686 13.922 53.4526 13.546C53.2446 13.162 53.1406 12.71 53.1406 12.19V10.438C53.1406 9.91 53.2446 9.458 53.4526 9.082C53.6686 8.706 53.9686 8.418 54.3526 8.218C54.7366 8.018 55.1926 7.918 55.7206 7.918C56.2486 7.918 56.7046 8.018 57.0886 8.218C57.4726 8.418 57.7686 8.706 57.9766 9.082C58.1926 9.458 58.3006 9.906 58.3006 10.426V12.19C58.3006 12.71 58.1926 13.162 57.9766 13.546C57.7686 13.922 57.4726 14.21 57.0886 14.41C56.7046 14.61 56.2486 14.71 55.7206 14.71ZM55.7206 13.75C56.1926 13.75 56.5606 13.618 56.8246 13.354C57.0886 13.09 57.2206 12.702 57.2206 12.19V10.438C57.2206 9.926 57.0886 9.538 56.8246 9.274C56.5606 9.01 56.1926 8.878 55.7206 8.878C55.2566 8.878 54.8886 9.01 54.6166 9.274C54.3526 9.538 54.2206 9.926 54.2206 10.438V12.19C54.2206 12.702 54.3526 13.09 54.6166 13.354C54.8886 13.618 55.2566 13.75 55.7206 13.75Z" fill="white"/>
<path d="M49.2453 14.614C48.6773 14.614 48.2333 14.462 47.9133 14.158C47.6013 13.854 47.4453 13.426 47.4453 12.874V9.92799C47.4453 9.41437 47.029 8.99799 46.5153 8.99799H46.0773C45.8056 8.99799 45.5853 8.77772 45.5853 8.50599V8.50599C45.5853 8.23427 45.8056 8.01399 46.0773 8.01399H46.5153C47.029 8.01399 47.4453 7.59762 47.4453 7.08399V6.69399C47.4453 6.39576 47.6871 6.15399 47.9853 6.15399V6.15399C48.2836 6.15399 48.5253 6.39576 48.5253 6.69399V7.08399C48.5253 7.59762 48.9417 8.01399 49.4553 8.01399H50.6733C50.9451 8.01399 51.1653 8.23427 51.1653 8.50599V8.50599C51.1653 8.77772 50.9451 8.99799 50.6733 8.99799H49.8453C49.1163 8.99799 48.5253 9.58898 48.5253 10.318V12.874C48.5253 13.378 48.7653 13.63 49.2453 13.63H50.5533C50.8251 13.63 51.0453 13.8503 51.0453 14.122V14.122C51.0453 14.3937 50.8251 14.614 50.5533 14.614H49.2453Z" fill="white"/>
<path d="M39.41 14.614C39.1118 14.614 38.87 14.3722 38.87 14.074V6.39399C38.87 6.09575 39.1118 5.85399 39.41 5.85399V5.85399C39.7082 5.85399 39.95 6.09575 39.95 6.39399V9.90037C39.95 10.363 40.325 10.738 40.7876 10.738V10.738C41.06 10.738 41.3153 10.6056 41.4723 10.3829L42.9912 8.22793C43.0858 8.09379 43.2396 8.01399 43.4037 8.01399V8.01399C43.813 8.01399 44.0521 8.47551 43.816 8.80984L42.7358 10.3397C42.387 10.8337 42.375 11.4904 42.7055 11.9968L43.8814 13.798C44.1104 14.1489 43.8586 14.614 43.4396 14.614V14.614C43.2614 14.614 43.0953 14.5241 42.9978 14.3749L41.4806 12.0515C41.3267 11.816 41.0644 11.674 40.7831 11.674V11.674C40.323 11.674 39.95 12.047 39.95 12.5071V14.074C39.95 14.3722 39.7082 14.614 39.41 14.614V14.614Z" fill="white"/>
<path d="M32.0467 14.614C31.775 14.614 31.5547 14.3937 31.5547 14.122V14.122C31.5547 13.8503 31.775 13.63 32.0467 13.63H32.7247C33.3709 13.63 33.8947 13.1062 33.8947 12.46V10.018C33.8947 9.45466 33.438 8.99799 32.8747 8.99799H32.3467C32.075 8.99799 31.8547 8.77772 31.8547 8.50599V8.50599C31.8547 8.23427 32.075 8.01399 32.3467 8.01399H33.4147C34.2763 8.01399 34.9747 8.71243 34.9747 9.57399V12.52C34.9747 13.133 35.4717 13.63 36.0847 13.63H36.7027C36.9744 13.63 37.1947 13.8503 37.1947 14.122V14.122C37.1947 14.3937 36.9744 14.614 36.7027 14.614H32.0467ZM34.3147 6.82599C34.0507 6.82599 33.8427 6.75799 33.6907 6.62199C33.5387 6.48599 33.4627 6.30199 33.4627 6.06999C33.4627 5.82999 33.5387 5.64199 33.6907 5.50599C33.8427 5.36199 34.0507 5.28999 34.3147 5.28999C34.5787 5.28999 34.7867 5.36199 34.9387 5.50599C35.0907 5.64199 35.1667 5.82999 35.1667 6.06999C35.1667 6.30199 35.0907 6.48599 34.9387 6.62199C34.7867 6.75799 34.5787 6.82599 34.3147 6.82599Z" fill="white"/>
<path d="M26.9394 14.614C26.6412 14.614 26.3994 14.3722 26.3994 14.074V8.026C26.3994 7.36325 25.8621 6.82599 25.1994 6.82599H24.4914C24.2197 6.82599 23.9994 6.60572 23.9994 6.33399V6.33399C23.9994 6.06227 24.2197 5.842 24.4914 5.842H29.3874C29.6591 5.842 29.8794 6.06227 29.8794 6.33399V6.33399C29.8794 6.60572 29.6591 6.82599 29.3874 6.82599H28.6794C28.0166 6.82599 27.4794 7.36325 27.4794 8.026V14.074C27.4794 14.3722 27.2376 14.614 26.9394 14.614V14.614Z" fill="white"/>
</svg>
