<svg width="830" height="87" viewBox="0 0 830 87" fill="none" xmlns="http://www.w3.org/2000/svg">
<path d="M1 6C1 3.23857 3.23858 1 6 1H824C826.761 1 829 3.23857 829 6V81C829 83.7614 826.761 86 824 86H6C3.23857 86 1 83.7614 1 81V6Z" fill="#10110C"/>
<path d="M1 6C1 3.23857 3.23858 1 6 1H824C826.761 1 829 3.23857 829 6V81C829 83.7614 826.761 86 824 86H6C3.23857 86 1 83.7614 1 81V6Z" fill="url(#paint0_radial_193_605)" fill-opacity="0.06"/>
<path d="M1 6C1 3.23857 3.23858 1 6 1H824C826.761 1 829 3.23857 829 6V81C829 83.7614 826.761 86 824 86H6C3.23857 86 1 83.7614 1 81V6Z" stroke="#FAFAFA" stroke-width="2"/>
<path d="M300.367 73.347C297.521 73.347 295.03 72.915 292.896 72.051C290.812 71.1361 289.135 69.8655 287.864 68.239C287.403 67.6241 287.011 66.9656 286.687 66.2635C285.802 64.3398 287.508 62.4449 289.626 62.4449C291.308 62.4449 292.664 63.7521 293.804 64.9888C294.131 65.3435 294.515 65.6646 294.954 65.9519C296.326 66.8159 298.131 67.2479 300.367 67.2479H303.569C306.263 67.2479 308.27 66.7143 309.592 65.6469C310.913 64.5287 311.574 63.0548 311.574 61.2251C311.574 59.4462 310.964 58.0484 309.744 57.0319C308.575 55.9646 306.822 55.253 304.484 54.8972L298.842 53.9824C294.725 53.2708 291.65 52.0002 289.617 50.1704C287.635 48.2899 286.644 45.5707 286.644 42.0129C286.644 38.2518 287.838 35.3547 290.227 33.3217C292.616 31.2378 296.199 30.1959 300.977 30.1959H303.874C307.889 30.1959 311.117 31.1361 313.556 33.0167C314.913 34.0627 315.972 35.3132 316.731 36.7681C317.724 38.6695 316.037 40.6406 313.892 40.6406C312.267 40.6406 310.946 39.3848 309.78 38.2531C309.502 37.9832 309.185 37.7371 308.83 37.5148C307.61 36.7016 305.958 36.295 303.874 36.295H300.977C298.385 36.295 296.479 36.7778 295.259 37.7435C294.09 38.7092 293.506 40.1577 293.506 42.0891C293.506 43.8172 294.014 45.0878 295.03 45.9011C296.047 46.7143 297.648 47.2988 299.833 47.6546L305.475 48.5694C309.999 49.281 313.277 50.6025 315.31 52.5338C317.394 54.4652 318.436 57.2606 318.436 60.9201C318.436 64.7829 317.19 67.8324 314.7 70.0688C312.26 72.2543 308.55 73.347 303.569 73.347H300.367Z" fill="white"/>
<path d="M268.168 72.7373C265.728 72.7373 263.593 72.2545 261.764 71.2888C259.934 70.3231 258.511 68.9508 257.494 67.1719C256.478 65.393 255.97 63.3091 255.97 60.9203V34.3346C255.97 28.2595 251.045 23.3346 244.97 23.3346H34.9732C33.8264 23.3346 32.7563 22.758 32.1256 21.8001C30.6309 19.5299 32.2637 16.509 34.9817 16.5158L251.858 17.0557C257.923 17.0708 262.831 21.9912 262.831 28.0557V60.9203C262.831 62.6484 263.314 64.0207 264.28 65.0372C265.245 66.0029 266.541 66.4858 268.168 66.4858H278.384C280.11 66.4858 281.51 67.8852 281.51 69.6116C281.51 71.3379 280.11 72.7373 278.384 72.7373H268.168Z" fill="white"/>
<path d="M206.577 73.5C202.155 73.5 198.674 72.3818 196.132 70.1455C193.591 67.8583 192.32 64.7833 192.32 60.9206C192.32 57.007 193.591 53.932 196.132 51.6957C198.674 49.4593 202.104 48.3412 206.425 48.3412H215.192C217.508 48.3412 219.385 46.4638 219.385 44.148C219.385 41.5559 218.597 39.5737 217.022 38.2014C215.497 36.7783 213.312 36.0667 210.465 36.0667C207.975 36.0667 205.891 36.6004 204.214 37.6677C203.505 38.0972 202.923 38.5947 202.469 39.1603C201.4 40.4897 200.05 41.8609 198.344 41.8609C196.28 41.8609 194.636 40.0061 195.488 38.1266C196.358 36.2104 197.716 34.5835 199.563 33.2459C202.511 31.1112 206.196 30.0439 210.618 30.0439C215.446 30.0439 219.258 31.2891 222.054 33.7796C224.849 36.27 226.247 39.6499 226.247 43.9193V69.3831C226.247 71.2357 224.745 72.7376 222.892 72.7376C221.04 72.7376 219.538 71.2357 219.538 69.3831V65.0675C219.538 64.8825 219.388 64.7325 219.203 64.7325C218.904 64.7325 218.755 64.3717 218.966 64.1607C219.177 63.9497 219.53 64.0994 219.509 64.3971C219.313 67.068 218.128 69.2129 215.954 70.8316C213.616 72.6105 210.491 73.5 206.577 73.5ZM208.254 68.087C211.507 68.087 214.176 67.2738 216.259 65.6474C218.343 64.021 219.385 61.9371 219.385 59.3958C219.385 56.1116 216.723 53.4492 213.439 53.4492H206.577C204.29 53.4492 202.486 54.0845 201.164 55.3551C199.843 56.6258 199.182 58.3539 199.182 60.5394C199.182 62.8774 199.97 64.7325 201.545 66.1048C203.172 67.4263 205.408 68.087 208.254 68.087Z" fill="white"/>
<path d="M151.258 72.7376C149.531 72.7376 148.132 71.3381 148.132 69.6118C148.132 67.8854 149.531 66.486 151.258 66.486H155.565C159.67 66.486 162.998 63.158 162.998 59.0527V43.5381C162.998 39.9591 160.097 37.0578 156.518 37.0578H153.163C151.437 37.0578 150.038 35.6583 150.038 33.932C150.038 32.2057 151.437 30.8062 153.163 30.8062H159.949C165.422 30.8062 169.86 35.2435 169.86 40.7173V59.4339C169.86 63.3287 173.017 66.486 176.912 66.486H180.838C182.564 66.486 183.964 67.8854 183.964 69.6118C183.964 71.3381 182.564 72.7376 180.838 72.7376H151.258ZM165.667 23.2586C163.989 23.2586 162.668 22.8265 161.702 21.9625C160.737 21.0985 160.254 19.9295 160.254 18.4555C160.254 16.9307 160.737 15.7363 161.702 14.8723C162.668 13.9574 163.989 13.5 165.667 13.5C167.344 13.5 168.665 13.9574 169.631 14.8723C170.597 15.7363 171.08 16.9307 171.08 18.4555C171.08 19.9295 170.597 21.0985 169.631 21.9625C168.665 22.8265 167.344 23.2586 165.667 23.2586Z" fill="white"/>
<path d="M119.115 73.5C115.76 73.5 112.812 72.8647 110.271 71.594C107.78 70.3234 105.849 68.4936 104.477 66.1048C103.104 63.6652 102.418 60.7935 102.418 57.4898V46.054C102.418 42.6995 103.104 39.8278 104.477 37.439C105.849 35.0502 107.78 33.2205 110.271 31.9498C112.812 30.6792 115.76 30.0439 119.115 30.0439C123.943 30.0439 127.831 31.3399 130.779 33.932C132.898 35.7951 134.295 38.144 134.969 40.9787C135.423 42.8859 133.804 44.5292 131.843 44.5292C130.005 44.5292 128.584 43.0462 127.92 41.3321C127.459 40.1413 126.76 39.1485 125.824 38.3539C124.197 36.8799 121.961 36.143 119.115 36.143C116.116 36.143 113.727 37.007 111.948 38.7351C110.169 40.4123 109.28 42.8266 109.28 45.9778V57.4898C109.28 60.641 110.169 63.0807 111.948 64.8088C113.727 66.5368 116.116 67.4009 119.115 67.4009C121.961 67.4009 124.197 66.6639 125.824 65.19C126.751 64.3745 127.446 63.3802 127.907 62.2069C128.58 60.4967 130.004 59.0146 131.842 59.0146C133.803 59.0146 135.423 60.6588 134.969 62.567C134.294 65.4008 132.897 67.7491 130.779 69.6118C127.831 72.2039 123.943 73.5 119.115 73.5Z" fill="white"/>
<path d="M73.0959 73.347C69.7414 73.347 66.8444 72.7117 64.4047 71.4411C61.9651 70.1704 60.0591 68.3407 58.6868 65.9519C57.3653 63.5122 56.7046 60.6406 56.7046 57.3369V46.206C56.7046 42.8515 57.3653 39.9798 58.6868 37.591C60.0591 35.2022 61.9651 33.3725 64.4047 32.1018C66.8444 30.8312 69.7414 30.1959 73.0959 30.1959C76.4504 30.1959 79.3475 30.8312 81.7872 32.1018C84.2268 33.3725 86.1074 35.2022 87.4288 37.591C88.8011 39.9798 89.4873 42.8261 89.4873 46.1298V57.3369C89.4873 60.6406 88.8011 63.5122 87.4288 65.9519C86.1074 68.3407 84.2268 70.1704 81.7872 71.4411C79.3475 72.7117 76.4504 73.347 73.0959 73.347ZM73.0959 67.2479C76.0947 67.2479 78.4327 66.4093 80.1099 64.732C81.7872 63.0548 82.6258 60.5897 82.6258 57.3369V46.206C82.6258 42.9532 81.7872 40.4881 80.1099 38.8108C78.4327 37.1336 76.0947 36.295 73.0959 36.295C70.148 36.295 67.81 37.1336 66.082 38.8108C64.4047 40.4881 63.5661 42.9532 63.5661 46.206V57.3369C63.5661 60.5897 64.4047 63.0548 66.082 64.732C67.81 66.4093 70.148 67.2479 73.0959 67.2479Z" fill="white"/>
<path d="M27.6874 73.5C24.0279 73.5 20.8767 72.8901 18.2338 71.6703C15.6417 70.4505 13.6341 68.697 12.2109 66.4098C11.3335 64.9997 10.717 63.4254 10.3612 61.6869C9.98006 59.8246 11.5575 58.2522 13.4584 58.2522C15.3379 58.2522 16.7656 59.827 17.4046 61.5945C17.8677 62.8754 18.627 63.9723 19.6823 64.885C21.6137 66.5114 24.2821 67.3247 27.6874 67.3247C30.8894 67.3247 33.3799 66.5369 35.1588 64.9613C36.9885 63.3857 37.9034 61.2001 37.9034 58.4047C37.9034 56.1684 37.2935 54.2116 36.0737 52.5343C34.9047 50.8571 33.202 49.6881 30.9657 49.0273L23.418 46.6639C19.6061 45.4949 16.6582 43.5381 14.5743 40.7935C12.5413 38.0489 11.5248 34.8215 11.5248 31.1112C11.5248 28.1125 12.1855 25.5204 13.507 23.3349C14.8793 21.0985 16.7853 19.3704 19.2249 18.1506C21.6645 16.88 24.5362 16.2446 27.8399 16.2446C32.7192 16.2446 36.6328 17.6169 39.5807 20.3615C41.7415 22.3361 43.1241 24.8023 43.7283 27.76C44.1084 29.6207 42.5278 31.1875 40.6287 31.1875C38.7446 31.1875 37.3178 29.6112 36.7003 27.8311C36.2847 26.6329 35.6183 25.617 34.7014 24.7834C33.0749 23.2078 30.7624 22.42 27.7636 22.42C24.8157 22.42 22.5032 23.1316 20.8259 24.5547C19.1995 25.9778 18.3863 27.96 18.3863 30.5013C18.3863 32.7885 18.9962 34.7707 20.216 36.4479C21.4358 38.1252 23.1893 39.3196 25.4765 40.0312L33.1004 42.4708C36.8107 43.6398 39.6823 45.622 41.7154 48.4174C43.7484 51.2129 44.7649 54.4911 44.7649 58.2522C44.7649 61.3018 44.0533 63.9701 42.6302 66.2573C41.2071 68.5445 39.1995 70.3234 36.6074 71.594C34.0661 72.8647 31.0927 73.5 27.6874 73.5Z" fill="white"/>
<defs>
<radialGradient id="paint0_radial_193_605" cx="0" cy="0" r="1" gradientUnits="userSpaceOnUse" gradientTransform="translate(336 44.0241) rotate(1.5884) scale(378.145 396.342)">
<stop stop-opacity="0"/>
<stop offset="1" stop-color="#FAFAFA"/>
</radialGradient>
</defs>
</svg>
